<svg width="100" height="100" viewBox="0 0 100 100" fill="none" xmlns="http://www.w3.org/2000/svg">
<path fill-rule="evenodd" clip-rule="evenodd" d="M87.5 0C90.8152 0 93.9946 1.31696 96.3388 3.66117C98.683 6.00537 100 9.18479 100 12.5V87.5C100 90.8152 98.683 93.9946 96.3388 96.3388C93.9946 98.683 90.8152 100 87.5 100H12.5C9.18479 100 6.00537 98.683 3.66117 96.3388C1.31696 93.9946 0 90.8152 0 87.5V0H87.5ZM28.6875 46.8625C24.9042 46.8625 21.8729 47.9208 19.5937 50.0375C17.3146 52.15 16.175 55.2417 16.175 59.3125V78.725C16.175 82.8333 17.2729 85.925 19.4688 88C21.6646 90.075 24.5937 91.1125 28.2562 91.1125C30.6562 91.1125 32.7729 90.6458 34.6063 89.7125C36.4813 88.775 37.9458 87.3708 39 85.5C40.0625 83.625 40.5917 81.3042 40.5875 78.5375V77.3812H32.9625V78.4813C32.9625 80.3521 32.575 81.775 31.8 82.75C31.025 83.725 29.9271 84.2146 28.5062 84.2188C26.9562 84.1771 25.7958 83.6271 25.025 82.5688C24.25 81.5063 23.8625 79.9396 23.8625 77.8687V60.5375C23.8625 58.2583 24.2083 56.5687 24.9 55.4688C25.6375 54.3688 26.8396 53.8188 28.5062 53.8188C29.8437 53.8188 30.9208 54.2875 31.7375 55.225C32.55 56.1583 32.9562 57.6021 32.9562 59.5563V60.8375H40.6437V59.5C40.6437 56.6917 40.1375 54.35 39.125 52.475C38.2135 50.675 36.7626 49.2044 34.975 48.2688C33.225 47.3313 31.1292 46.8625 28.6875 46.8625ZM55.025 46.8C52.5833 46.8 50.4875 47.3083 48.7375 48.325C47.0439 49.327 45.6681 50.7873 44.7688 52.5375C43.795 54.4652 43.312 56.6034 43.3625 58.7625C43.3625 61.9 43.9729 64.3625 45.1937 66.15C46.4604 67.9 48.475 69.425 51.2375 70.725L54.1687 72.0688C56.0021 72.8438 57.3042 73.7396 58.075 74.7563C58.85 75.7729 59.2375 77.0958 59.2375 78.725C59.2375 80.7167 58.8917 82.1812 58.2 83.1187C57.5458 84.0521 56.4458 84.5187 54.9 84.5187C53.4 84.5187 52.2604 84.0104 51.4813 82.9938C50.7104 81.9813 50.2833 80.4146 50.2 78.2938H42.9375C43.0208 82.4438 44.0583 85.6187 46.05 87.8187C48.0458 90.0146 50.9354 91.1125 54.7188 91.1125C58.5021 91.1125 61.4521 90.0333 63.5687 87.875C65.6854 85.7167 66.7437 82.625 66.7437 78.6C66.7437 75.225 66.0521 72.5396 64.6688 70.5437C63.2813 68.5479 61.1042 66.9021 58.1375 65.6062L55.325 64.3812C53.7 63.6896 52.5417 62.8958 51.85 62C51.1625 61.1083 50.8167 59.9083 50.8125 58.4C50.8125 56.7333 51.1583 55.4917 51.85 54.675C52.5792 53.8625 53.6375 53.4563 55.025 53.4563C56.525 53.4563 57.5833 53.9437 58.2 54.9187C58.85 55.8937 59.2146 57.3583 59.2938 59.3125H66.3125C66.1875 55.2458 65.15 52.1542 63.2 50.0375C61.25 47.8792 58.525 46.8 55.025 46.8ZM80.3813 46.8C77.9438 46.8 75.8479 47.3083 74.0937 48.325C72.4025 49.3279 71.0289 50.7881 70.1312 52.5375C69.1575 54.4652 68.6745 56.6034 68.725 58.7625C68.725 61.9 69.3354 64.3625 70.5562 66.15C71.8187 67.9 73.8333 69.425 76.6 70.725L79.5313 72.0688C81.3563 72.8438 82.6583 73.7396 83.4375 74.7563C84.2083 75.7729 84.5937 77.0958 84.5937 78.725C84.5937 80.7167 84.2479 82.1812 83.5563 83.1187C82.9063 84.0521 81.8083 84.5187 80.2625 84.5187C78.7583 84.5229 77.6188 84.0146 76.8438 82.9938C76.0688 81.9813 75.6417 80.4146 75.5625 78.2938H68.3C68.3833 82.4438 69.4208 85.6187 71.4125 87.8187C73.4083 90.0146 76.2958 91.1125 80.075 91.1125C83.8625 91.1125 86.8146 90.0333 88.9313 87.875C91.0438 85.7208 92.1 82.6292 92.1 78.6C92.1 75.225 91.4083 72.5396 90.025 70.5437C88.6417 68.5479 86.4646 66.9021 83.4938 65.6062L80.6875 64.3812C79.0625 63.6896 77.9042 62.8958 77.2125 62C76.5208 61.1083 76.175 59.9083 76.175 58.4C76.175 56.7333 76.5187 55.4917 77.2062 54.675C77.9437 53.8625 79.0021 53.4563 80.3813 53.4563C81.8854 53.4563 82.9438 53.9437 83.5563 54.9187C84.2063 55.8937 84.5729 57.3583 84.6563 59.3125H91.675C91.55 55.2458 90.5125 52.1542 88.5625 50.0375C86.6042 47.8792 83.8771 46.8 80.3813 46.8Z" fill="white"/>
</svg>
