<svg width="88" height="67" viewBox="0 0 88 67" fill="none" xmlns="http://www.w3.org/2000/svg">
<path d="M74.034 5.54167C68.4923 2.95833 62.4923 1.08333 56.2423 0C56.1324 0.00156544 56.0276 0.0464949 55.9507 0.125001C55.2007 1.5 54.3257 3.29167 53.7423 4.66667C47.1131 3.66729 40.3716 3.66729 33.7424 4.66667C33.159 3.25 32.284 1.5 31.4924 0.125001C31.4507 0.0416675 31.3257 0 31.2007 0C24.9507 1.08333 18.9923 2.95833 13.409 5.54167C13.3673 5.54167 13.3257 5.58333 13.284 5.625C1.95068 22.5833 -1.17432 39.0833 0.36735 55.4167C0.36735 55.5 0.409017 55.5833 0.49235 55.625C7.99235 61.125 15.2007 64.4583 22.3257 66.6667C22.4507 66.7083 22.5757 66.6667 22.6173 66.5833C24.284 64.2917 25.784 61.875 27.0757 59.3333C27.159 59.1667 27.0757 59 26.909 58.9583C24.534 58.0417 22.284 56.9583 20.0757 55.7083C19.909 55.625 19.909 55.375 20.034 55.25C20.4923 54.9167 20.9507 54.5417 21.409 54.2083C21.4923 54.125 21.6173 54.125 21.7007 54.1667C36.034 60.7083 51.4923 60.7083 65.659 54.1667C65.7423 54.125 65.8673 54.125 65.9507 54.2083C66.409 54.5833 66.8673 54.9167 67.3257 55.2917C67.4923 55.4167 67.4923 55.6667 67.284 55.75C65.1173 57.0417 62.8257 58.0833 60.4507 59C60.284 59.0417 60.2423 59.25 60.284 59.375C61.6173 61.9167 63.1174 64.3333 64.7424 66.625C64.8674 66.6667 64.9923 66.7083 65.1173 66.6667C72.284 64.4583 79.4923 61.125 86.9923 55.625C87.0757 55.5833 87.1173 55.5 87.1173 55.4167C88.9507 36.5417 84.0757 20.1667 74.2007 5.625C74.159 5.58333 74.1173 5.54167 74.034 5.54167ZM29.2424 45.4583C24.9507 45.4583 21.3673 41.5 21.3673 36.625C21.3673 31.75 24.8674 27.7917 29.2424 27.7917C33.659 27.7917 37.159 31.7917 37.1173 36.625C37.1173 41.5 33.6174 45.4583 29.2424 45.4583ZM58.284 45.4583C53.9923 45.4583 50.409 41.5 50.409 36.625C50.409 31.75 53.909 27.7917 58.284 27.7917C62.7007 27.7917 66.2007 31.7917 66.159 36.625C66.159 41.5 62.7007 45.4583 58.284 45.4583Z" fill="white"/>
</svg>
