<svg width="88" height="88" viewBox="0 0 88 88" fill="none" xmlns="http://www.w3.org/2000/svg">
<path d="M0 0V87.5H87.5V0H0ZM47.6188 68.2406C47.6188 76.7562 42.6188 80.6438 35.3344 80.6438C28.7531 80.6438 24.9438 77.2469 22.9906 73.125L29.6906 69.0813C30.9813 71.3656 32.1531 73.3 34.9844 73.3C37.6781 73.3 39.3969 72.2437 39.3969 68.125V40.175H47.6188V68.2406ZM67.0687 80.6438C59.4313 80.6438 54.4906 77.0125 52.0875 72.2438L58.7875 68.3781C60.5469 71.25 62.85 73.3781 66.8938 73.3781C70.2906 73.3781 72.4812 71.6781 72.4812 69.3156C72.4812 66.5031 70.2531 65.5062 66.4844 63.8469L64.4344 62.9688C58.4969 60.45 54.5719 57.2656 54.5719 50.5656C54.5719 44.3937 59.2781 39.7062 66.6031 39.7062C71.8375 39.7062 75.5875 41.5219 78.2844 46.2875L71.8781 50.3906C70.4719 47.8719 68.9469 46.875 66.5844 46.875C64.1844 46.875 62.6594 48.4 62.6594 50.3906C62.6594 52.8531 64.1844 53.8469 67.7188 55.3906L69.7688 56.2688C76.7625 59.2563 80.6875 62.325 80.6875 69.1969C80.6875 76.5812 74.8656 80.6406 67.0719 80.6406L67.0687 80.6438Z" fill="white"/>
</svg>
