<svg width="84" height="100" viewBox="0 0 84 100" fill="none" xmlns="http://www.w3.org/2000/svg">
<path d="M51.8187 0.00114742C50.3961 -0.0277588 48.9828 0.489429 47.9187 1.56052L6.175 43.6465C2.12031 47.7379 0 53.384 0 59.6261C0 65.8683 2.12109 71.6941 6.175 75.7777L24.1469 93.9496C28.2016 98.0285 33.8055 99.9996 39.993 99.9996C46.1805 99.9996 51.7859 97.866 55.8484 93.7738L66.632 82.7863C68.757 80.6441 68.6828 77.098 66.4703 74.8683C64.2578 72.6386 60.7406 72.5652 58.6195 74.7066L47.4688 85.5691C45.5438 87.5152 42.8766 88.3285 39.9305 88.3285C36.9844 88.3285 34.3211 87.516 32.3883 85.5691L14.4789 67.3902C12.5492 65.4449 11.5805 62.598 11.5805 59.6269C11.5805 56.6558 12.5492 53.973 14.4789 52.0269L32.3352 33.7754C34.2648 31.8301 36.9859 31.0886 39.9273 31.0886C42.8695 31.0886 45.5367 31.8996 47.4656 33.8465L58.6148 44.7058C60.7398 46.8511 64.2578 46.7761 66.4703 44.5472C68.6828 42.3129 68.757 38.7676 66.632 36.6254L55.8484 25.6426C53.1445 22.9511 49.7195 20.9926 45.882 20.1011L45.7398 20.0699L55.9352 9.64021C58.0695 7.49959 57.9945 3.94958 55.7812 1.7199C54.734 0.653818 53.3127 0.0373636 51.8187 0.00114742ZM36.1508 54.2019C33.2508 54.2019 30.9023 56.7176 30.9023 59.8097C30.9023 62.9019 33.2469 65.4191 36.1508 65.4191H78.0867C80.9867 65.423 83.3367 62.9058 83.3367 59.8097C83.3367 56.7176 80.9867 54.2019 78.0867 54.2019H36.1508Z" fill="white"/>
</svg>
