<svg width="100" height="100" viewBox="0 0 100 100" fill="none" xmlns="http://www.w3.org/2000/svg">
<path d="M49.6417 0C24.25 0 25.8333 11.0667 25.8333 11.0667L25.8625 22.5333H50.0875V25.975H16.25C16.25 25.975 0 24.1208 0 49.8708C0 75.6208 14.1792 74.7042 14.1792 74.7042H22.6375V62.7583C22.6375 62.7583 22.1833 48.5083 36.5958 48.5083H60.6208C60.6208 48.5083 74.1208 48.725 74.1208 35.3917V13.3417C74.1208 13.3417 76.1708 0 49.6417 0ZM36.2833 7.70833C38.6917 7.70833 40.6417 9.66667 40.6417 12.0917C40.6417 14.5125 38.6917 16.4708 36.2833 16.4708C33.875 16.4708 31.925 14.5125 31.925 12.0917C31.925 9.66667 33.8708 7.70833 36.2833 7.70833Z" fill="white"/>
<path d="M50.3625 100C75.7458 100 74.1625 88.9333 74.1625 88.9333L74.1333 77.4667H49.9083V74.025H83.7541C83.7541 74.025 100.004 75.8792 100.004 50.1292C100.004 24.3792 85.8208 25.2958 85.8208 25.2958H77.3625V37.2417C77.3625 37.2417 77.8166 51.4917 63.4041 51.4917H39.3833C39.3833 51.4917 25.8833 51.275 25.8833 64.6083V86.6583C25.8833 86.6583 23.8333 100 50.3625 100ZM63.7208 92.2917C61.3083 92.2917 59.3625 90.3333 59.3625 87.9083C59.3625 85.4875 61.3083 83.5292 63.7208 83.5292C66.1291 83.5292 68.0791 85.4875 68.0791 87.9083C68.0791 90.3333 66.1291 92.2917 63.7208 92.2917Z" fill="white"/>
</svg>
