<svg width="90" height="81" viewBox="0 0 90 81" fill="none" xmlns="http://www.w3.org/2000/svg">
<path d="M44.7917 32.196C49.0833 32.196 52.5833 35.696 52.5833 40.071C52.5833 44.2376 49.0833 47.7793 44.7917 47.7793C40.5 47.7793 37 44.2376 37 40.071C37 35.696 40.5 32.196 44.7917 32.196ZM25.5 73.4043C28.125 74.9876 33.875 72.571 40.5 66.321C38.3333 63.8626 36.2083 61.196 34.2083 58.4043C30.8509 58.0806 27.5129 57.5799 24.2083 56.9043C22.0833 65.821 22.875 71.946 25.5 73.4043ZM28.4583 49.4876L27.25 47.3626C26.7917 48.571 26.3333 49.7793 26.0417 50.946C27.1667 51.196 28.4167 51.4043 29.7083 51.6126L28.4583 49.4876ZM55.7083 46.321L59.0833 40.071L55.7083 33.821C54.4583 31.6126 53.125 29.6543 51.9167 27.696C49.6667 27.571 47.2917 27.571 44.7917 27.571C42.2917 27.571 39.9167 27.571 37.6667 27.696C36.4583 29.6543 35.125 31.6126 33.875 33.821L30.5 40.071L33.875 46.321C35.125 48.5293 36.4583 50.4876 37.6667 52.446C39.9167 52.571 42.2917 52.571 44.7917 52.571C47.2917 52.571 49.6667 52.571 51.9167 52.446C53.125 50.4876 54.4583 48.5293 55.7083 46.321ZM44.7917 18.321C44 19.2376 43.1667 20.196 42.3333 21.321H47.25C46.4167 20.196 45.5833 19.2376 44.7917 18.321ZM44.7917 61.821C45.5833 60.9043 46.4167 59.946 47.25 58.821H42.3333C43.1667 59.946 44 60.9043 44.7917 61.821ZM64.0417 6.73764C61.4583 5.1543 55.7083 7.57097 49.0833 13.821C51.25 16.2793 53.375 18.946 55.375 21.7376C58.7917 22.071 62.1667 22.571 65.375 23.2376C67.5 14.321 66.7083 8.19597 64.0417 6.73764ZM61.125 30.6543L62.3333 32.7793C62.7917 31.571 63.25 30.3626 63.5417 29.196C62.4167 28.946 61.1667 28.7376 59.875 28.5293L61.125 30.6543ZM67.1667 1.2793C73.2917 4.7793 73.9583 13.9876 71.375 24.7376C81.9583 27.8626 89.5833 33.0293 89.5833 40.071C89.5833 47.1126 81.9583 52.2793 71.375 55.4043C73.9583 66.1543 73.2917 75.3626 67.1667 78.8626C61.0833 82.3626 52.7917 78.3626 44.7917 70.7376C36.7917 78.3626 28.5 82.3626 22.375 78.8626C16.2917 75.3626 15.625 66.1543 18.2083 55.4043C7.625 52.2793 0 47.1126 0 40.071C0 33.0293 7.625 27.8626 18.2083 24.7376C15.625 13.9876 16.2917 4.7793 22.375 1.2793C28.5 -2.2207 36.7917 1.7793 44.7917 9.4043C52.7917 1.7793 61.0833 -2.2207 67.1667 1.2793ZM65.9583 40.071C67.375 43.196 68.625 46.321 69.6667 49.4876C78.4167 46.8626 83.3333 43.1126 83.3333 40.071C83.3333 37.0293 78.4167 33.2793 69.6667 30.6543C68.625 33.821 67.375 36.946 65.9583 40.071ZM23.625 40.071C22.2083 36.946 20.9583 33.821 19.9167 30.6543C11.1667 33.2793 6.25 37.0293 6.25 40.071C6.25 43.1126 11.1667 46.8626 19.9167 49.4876C20.9583 46.321 22.2083 43.196 23.625 40.071ZM61.125 49.4876L59.875 51.6126C61.1667 51.4043 62.4167 51.196 63.5417 50.946C63.25 49.7793 62.7917 48.571 62.3333 47.3626L61.125 49.4876ZM49.0833 66.321C55.7083 72.571 61.4583 74.9876 64.0417 73.4043C66.7083 71.946 67.5 65.821 65.375 56.9043C62.1667 57.571 58.7917 58.071 55.375 58.4043C53.375 61.196 51.25 63.8626 49.0833 66.321ZM28.4583 30.6543L29.7083 28.5293C28.4167 28.7376 27.1667 28.946 26.0417 29.196C26.3333 30.3626 26.7917 31.571 27.25 32.7793L28.4583 30.6543ZM40.5 13.821C33.875 7.57097 28.125 5.1543 25.5 6.73764C22.875 8.19597 22.0833 14.321 24.2083 23.2376C27.5129 22.562 30.8509 22.0613 34.2083 21.7376C36.2083 18.946 38.3333 16.2793 40.5 13.821Z" fill="white"/>
</svg>
