<svg width="100" height="100" viewBox="0 0 100 100" fill="none" xmlns="http://www.w3.org/2000/svg">
<mask id="mask0_65_8" style="mask-type:luminance" maskUnits="userSpaceOnUse" x="0" y="0" width="100" height="100">
<path d="M0 0H100V100H0V0Z" fill="white"/>
</mask>
<g mask="url(#mask0_65_8)">
<path d="M97.6208 1.46212e-05H2.375C2.06276 1.41407e-05 1.75359 0.0615831 1.46517 0.181199C1.17675 0.300814 0.914744 0.476128 0.69415 0.697108C0.473557 0.918089 0.298702 1.1804 0.179592 1.46903C0.0604828 1.75766 -0.000544128 2.06694 3.66173e-06 2.37918V97.625C-0.000545226 97.9376 0.0606191 98.2472 0.179989 98.5361C0.299359 98.825 0.474586 99.0875 0.695621 99.3086C0.916657 99.5296 1.17915 99.7048 1.46805 99.8242C1.75696 99.9436 2.06658 100.005 2.37917 100.004H97.625C97.9376 100.005 98.2472 99.9436 98.5361 99.8242C98.825 99.7048 99.0875 99.5296 99.3085 99.3086C99.5296 99.0875 99.7048 98.825 99.8242 98.5361C99.9435 98.2472 100.005 97.9376 100.004 97.625V2.37501C100.004 2.06242 99.9425 1.75291 99.8226 1.46421C99.7027 1.17552 99.527 0.913331 99.3056 0.692683C99.0842 0.472034 98.8214 0.297267 98.5323 0.178403C98.2431 0.0595396 97.9334 -0.00108219 97.6208 1.46212e-05ZM59.525 53.4417H47.6208V90.475H38.0958V53.4417H26.1917V45.2375H59.525V53.4417ZM62.1917 88.3583V78.4625C62.1917 78.4625 67.6 82.5375 74.0875 82.5375C80.575 82.5375 80.325 78.2958 80.325 77.7125C80.325 71.5583 61.9417 71.5583 61.9417 57.9167C61.9417 39.3667 88.7292 46.6875 88.7292 46.6875L88.3958 55.5042C88.3958 55.5042 83.9042 52.5083 78.8292 52.5083C73.7542 52.5083 71.925 54.925 71.925 57.5C71.925 64.1542 90.475 63.4917 90.475 76.8833C90.475 97.5083 62.1917 88.3625 62.1917 88.3625" fill="white"/>
</g>
</svg>
