<svg width="833" height="325" viewBox="0 0 833 325" fill="none" xmlns="http://www.w3.org/2000/svg">
<path d="M95.05 288V199.45L60.4 54.55H108L112.9 93.05C115.7 114.05 115.7 115.45 117.45 156.75H122C122 134 123.4 111.6 126.2 92L130.75 54.55H178L144.4 198.05V288H95.05ZM174.56 288L203.96 54.55H264.51L293.91 288H247.71L244.21 241.8H224.26L220.76 288H174.56ZM227.06 203.65H241.41L238.61 167.25L237.56 139.6C236.86 128.05 236.51 119.3 236.51 112.65V98.3H231.96C231.96 114.05 231.26 136.8 229.86 167.25L227.06 203.65ZM306.732 288V54.55H354.682L367.282 122.1C372.882 154.65 375.332 172.15 377.082 196.65H381.632C377.782 157.45 377.082 138.2 377.082 116.5V54.55H419.782V288H369.382L355.732 216.6C351.882 197 349.082 173.9 347.682 147.3H343.132L343.482 155.35L345.582 176.35C346.982 192.8 347.682 207.85 347.682 221.5V288H306.732ZM442.425 288V54.55H494.925C532.375 55.6 533.075 55.25 541.825 60.85C551.625 66.8 555.125 77.65 555.125 100.05V124.55C555.125 157.45 550.225 167.95 533.075 172.85C541.475 175.65 546.025 179.15 549.875 185.8C554.425 194.2 555.125 199.45 555.125 227.45V288H505.775V218C505.775 194.55 506.125 194.9 493.875 194.9H491.775V288H442.425ZM491.775 152.2H495.275C504.725 152.2 505.775 150.1 505.775 135.05V109.85C505.775 93.05 504.725 92.35 491.775 92.35V152.2ZM576.751 288V54.55H626.101V288H576.751ZM648.87 288V54.55H696.82L709.42 122.1C715.02 154.65 717.47 172.15 719.22 196.65H723.77C719.92 157.45 719.22 138.2 719.22 116.5V54.55H761.92V288H711.52L697.87 216.6C694.02 197 691.22 173.9 689.82 147.3H685.27L685.62 155.35L687.72 176.35C689.12 192.8 689.82 207.85 689.82 221.5V288H648.87Z" fill="white"/>
<path d="M56.95 205.465V202.575H31.96C31.96 203.652 31.9033 204.615 31.79 205.465H56.95ZM32.3 187.785H56.78V184.895H32.3V187.785ZM0.34 226.46C4.30667 223.74 7.055 219.433 8.585 213.54C10.115 207.647 10.88 198.438 10.88 185.915V166.705L78.03 166.79L78.37 225.525C78.37 228.245 78.2283 230.483 77.945 232.24C77.6617 233.94 77.0383 235.527 76.075 237C75.1117 238.417 73.9217 239.493 72.505 240.23C71.0883 240.967 68.6233 241.647 65.11 242.27C61.6533 242.95 54.7683 243.29 44.455 243.29L37.74 224.42C47.43 224.873 53.0683 224.93 54.655 224.59C56.2983 224.25 57.12 222.805 57.12 220.255H29.24C27.2567 228.132 23.97 235.952 19.38 243.715L0.34 226.46ZM100.215 242.95C96.3617 223.457 96.05 198.325 99.28 167.555L119.935 168.405C118.292 183.478 117.555 197.418 117.725 210.225C117.952 223.032 119.057 233.345 121.04 241.165L100.215 242.95ZM145.69 166.96L165.325 166.705C165.325 168.008 165.353 170.7 165.41 174.78H176.205V195.265H165.58C165.637 200.875 165.693 205.748 165.75 209.885C169.83 212.265 173.683 215.127 177.31 218.47L171.615 237.935C169.235 235.895 166.94 233.997 164.73 232.24C163.71 236.377 161.755 239.352 158.865 241.165C156.032 242.978 151.867 243.885 146.37 243.885C138.097 243.885 131.637 242.043 126.99 238.36C122.343 234.677 120.02 229.662 120.02 223.315C120.02 216.912 122.003 211.953 125.97 208.44C129.937 204.87 135.377 203.085 142.29 203.085C143.537 203.085 144.812 203.142 146.115 203.255C146.115 200.705 146.087 198.042 146.03 195.265H123.25V174.78H145.775C145.775 171.833 145.747 169.227 145.69 166.96ZM146.115 220.51C144.925 220.227 143.707 220.085 142.46 220.085C141.213 220.085 140.165 220.368 139.315 220.935C138.465 221.502 138.04 222.238 138.04 223.145C138.04 224.052 138.437 224.788 139.23 225.355C140.08 225.922 141.157 226.205 142.46 226.205C143.763 226.205 144.67 225.837 145.18 225.1C145.69 224.307 146.002 222.777 146.115 220.51ZM239.87 194.67C239.87 202.773 242.675 209.092 248.285 213.625C253.952 218.102 261.913 220.34 272.17 220.34C267.637 229.407 264.463 237.425 262.65 244.395C255.397 242.525 248.88 239.437 243.1 235.13C237.32 230.767 232.787 225.553 229.5 219.49C227.233 223.4 223.947 227.48 219.64 231.73C217.033 234.393 213.69 236.858 209.61 239.125C205.53 241.392 201.11 243.148 196.35 244.395C194.48 237.198 191.307 229.18 186.83 220.34C197.03 220.34 204.878 218.073 210.375 213.54C215.872 208.95 218.762 202.32 219.045 193.65L219.13 190.93L239.955 191.1L239.87 193.65V194.67ZM216.92 165.005C217.033 167.385 217.09 168.688 217.09 168.915H269.535C269.365 179.625 268.77 187.898 267.75 193.735C266.787 199.515 264.803 206.117 261.8 213.54C256.19 208.95 249.957 205.72 243.1 203.85C246.273 199.657 248.398 194.783 249.475 189.23H215.305C212.812 199.94 207.882 209.148 200.515 216.855C196.945 211.018 194.253 206.91 192.44 204.53C190.683 202.093 188.757 199.883 186.66 197.9C190.853 194.217 193.715 190.448 195.245 186.595C196.832 182.742 197.625 177.472 197.625 170.785C197.625 170.105 197.568 168.178 197.455 165.005H216.92ZM287.215 242.95C285.232 232.977 284.155 222.068 283.985 210.225C283.872 198.325 284.637 184.243 286.28 167.98L307.36 168.83C305.717 183.903 304.98 197.758 305.15 210.395C305.377 223.032 306.482 233.288 308.465 241.165L287.215 242.95ZM331.5 166.025H354.195V175.97H361.59V197.56H354.195V206.4C354.195 218.357 351.56 227.14 346.29 232.75C341.077 238.303 331.783 242.157 318.41 244.31L310.93 222.125C318.75 221.162 324.133 219.575 327.08 217.365C330.027 215.155 331.5 211.557 331.5 206.57V197.56H310.25V175.97H331.5V166.025ZM377.655 169.68L453.475 166.875L453.645 188.635C447.072 188.635 442.113 188.748 438.77 188.975C432.027 189.485 426.133 191.78 421.09 195.86C416.103 199.94 413.61 204.473 413.61 209.46C413.61 213.257 415.253 216.203 418.54 218.3C421.827 220.397 426.388 221.445 432.225 221.445C438.118 221.445 443.7 220.878 448.97 219.745L445.995 242.695C441.518 243.375 436.73 243.715 431.63 243.715C418.483 243.715 408.425 241.25 401.455 236.32C394.485 231.39 391 224.278 391 214.985C391 209.885 392.048 205.182 394.145 200.875C396.242 196.568 399.273 192.857 403.24 189.74C395.25 190.307 386.977 191.44 378.42 193.14L377.655 169.68ZM516.97 243.63C507.62 243.63 499.97 241.222 494.02 236.405C488.07 231.588 484.358 224.76 482.885 215.92L470.475 216.855L469.285 196.455L482.12 195.605C482.177 193.508 482.29 191.213 482.46 188.72L470.815 188.465L471.41 168.83L483.82 169.085C483.933 167.782 484.047 166.45 484.16 165.09L506.6 165.6C506.487 166.79 506.373 168.093 506.26 169.51L538.73 170.105L537.965 189.74L504.985 189.145C504.928 190.902 504.843 192.573 504.73 194.16L538.985 191.865L540.26 210.48L552.075 214.39C547.202 233.883 535.5 243.63 516.97 243.63ZM505.75 214.135C506.657 216.742 508.045 218.668 509.915 219.915C511.785 221.105 514.392 221.7 517.735 221.7C521.135 221.7 523.855 220.963 525.895 219.49C527.935 217.96 529.437 215.523 530.4 212.18L505.75 214.135ZM636.65 244.565C629.34 243.545 623.192 242.213 618.205 240.57C613.275 238.927 608.402 236.603 603.585 233.6C596.898 238.927 585.877 242.61 570.52 244.65C568.083 236.603 565.137 230.483 561.68 226.29H563.55C577.093 226.29 587.237 225.355 593.98 223.485H563.465V209.375H593.98V207.93H613.02V209.375H643.535V223.485H613.02C620.67 225.355 629.907 226.29 640.73 226.29H645.32C641.523 230.88 638.633 236.972 636.65 244.565ZM607.24 170.105C607.353 169.538 607.58 167.923 607.92 165.26L627.045 166.195C626.818 166.988 626.563 167.81 626.28 168.66C626.053 169.453 625.912 169.935 625.855 170.105H641.835V181.665H613.275V183.535H641.835V193.31H613.275V195.18H644.13V206.655H562.87V195.18H593.81V193.31H565.25V183.535H593.81V181.665H565.25V170.105H581.145C581.088 169.935 580.918 169.453 580.635 168.66C580.408 167.81 580.182 166.988 579.955 166.195L599.08 165.26C599.137 166.28 599.363 167.895 599.76 170.105H607.24ZM738.14 206.995C734.287 219.178 728.592 228.443 721.055 234.79C713.575 241.08 704.537 244.225 693.94 244.225C684.987 244.225 677.648 242.072 671.925 237.765C668.468 235.215 665.947 231.985 664.36 228.075C662.83 224.165 662.065 218.753 662.065 211.84C662.065 204.87 662.405 189.825 663.085 166.705L686.46 166.79C685.723 178.973 685.355 189.513 685.355 198.41C685.355 207.25 685.44 212.492 685.61 214.135C685.837 215.778 686.262 217.053 686.885 217.96C688.358 220.057 690.908 221.105 694.535 221.105C699.692 221.105 704.31 219.008 708.39 214.815C712.47 210.565 715.757 204.445 718.25 196.455L738.14 206.995ZM774.945 242.1C766.898 242.1 760.722 238.643 756.415 231.73C752.108 224.817 749.955 214.9 749.955 201.98C749.955 192.8 750.89 181.523 752.76 168.15L775.2 168.915C772.763 184.498 771.545 194.982 771.545 200.365C771.545 205.748 772.083 210.168 773.16 213.625C774.293 217.025 775.653 218.725 777.24 218.725C778.43 218.725 779.733 217.762 781.15 215.835C782.567 213.908 783.927 211.273 785.23 207.93L800.785 222.72C797.272 229.293 793.418 234.167 789.225 237.34C785.032 240.513 780.272 242.1 774.945 242.1ZM793.05 173.25L814.215 169.255C824.982 185.688 830.79 205.267 831.64 227.99L809.115 232.665C808.832 222.578 807.443 212.917 804.95 203.68C802.457 194.443 798.49 184.3 793.05 173.25Z" fill="url(#paint0_linear_36_3)"/>
<defs>
<linearGradient id="paint0_linear_36_3" x1="0" y1="204.5" x2="833" y2="204.5" gradientUnits="userSpaceOnUse">
<stop stop-color="#BC005B"/>
<stop offset="1" stop-color="#FF3577"/>
</linearGradient>
</defs>
</svg>
