<svg width="45" height="45" viewBox="0 0 45 45" fill="none" xmlns="http://www.w3.org/2000/svg">
<path d="M42 11C44.5102 15.6874 45.6142 21.9906 44.5056 27.191C43.397 32.3913 40.4826 37.0311 36.279 40.2873C32.0755 43.5436 26.8546 45.206 21.5422 44.9796C16.2298 44.7533 11.1692 42.6528 7.25793 39.0508C3.34663 35.4487 0.837394 30.5779 0.175207 25.3021C-0.486979 20.0262 0.740681 14.6864 3.64047 10.2295C6.54026 5.77254 10.9248 2.48661 16.0165 0.954404C21.1081 -0.577805 26.5779 -0.25727 31.4558 1.85916L27.1917 11.687C24.6363 10.5783 21.7709 10.4103 19.1035 11.213C16.4362 12.0157 14.1393 13.7371 12.6202 16.0719C11.1011 18.4067 10.4579 21.2041 10.8048 23.9679C11.1517 26.7317 12.4662 29.2834 14.5152 31.1704C16.5642 33.0574 19.2153 34.1577 21.9983 34.2763C24.7813 34.3949 27.5163 33.524 29.7184 31.8182C31.9205 30.1123 33.4473 27.6817 34.028 24.9574C34.6087 22.2331 34.2059 19.3912 32.8909 16.9356L42 11Z" fill="white"/>
<path d="M32.9 11H42L42.4 17L32.9 16.869V11Z" fill="white"/>
<path fill-rule="evenodd" clip-rule="evenodd" d="M41 8.50001C41 9.01371 40.9484 9.51534 40.85 10H32V15.85C28.5767 15.1551 26 12.1284 26 8.50001C26 4.35787 29.3579 1.00001 33.5 1.00001C37.6422 1.00001 41 4.35787 41 8.50001ZM35 8.00001C36.1046 8.00001 37 7.10458 37 6.00001C37 4.89544 36.1046 4.00001 35 4.00001C33.8955 4.00001 33 4.89544 33 6.00001C33 7.10458 33.8955 8.00001 35 8.00001Z" fill="white"/>
</svg>
