<svg width="38" height="42" viewBox="0 0 38 42" fill="none" xmlns="http://www.w3.org/2000/svg">
<path fill-rule="evenodd" clip-rule="evenodd" d="M38 22.5C38 25.5077 37.5017 28.3775 36.5974 31H1.40256C0.498335 28.3775 0 25.5077 0 22.5C0 10.0736 8.50659 0 19 0C29.4934 0 38 10.0736 38 22.5ZM10 15H5V20C5 23.3137 7.68629 26 11 26H16V21C16 17.6863 13.3137 15 10 15ZM33 15H28C24.6863 15 22 17.6863 22 21V26H27C30.3137 26 33 23.3137 33 20V15Z" fill="white"/>
<path d="M15.5 34C16.898 34 18.1046 34.8196 18.6654 36.0046C18.7761 36.0015 18.8877 36 19 36C19.1123 36 19.2239 36.0015 19.3346 36.0046C19.8954 34.8196 21.102 34 22.5 34C24.433 34 26 35.567 26 37.5C26 38.9023 25.1753 40.112 23.9845 40.6705C22.9074 41.4723 21.077 42 19 42C16.923 42 15.0926 41.4723 14.0155 40.6705C12.8247 40.112 12 38.9023 12 37.5C12 35.567 13.567 34 15.5 34Z" fill="white"/>
</svg>
