<svg width="48" height="37" viewBox="0 0 48 37" fill="none" xmlns="http://www.w3.org/2000/svg">
<path fill-rule="evenodd" clip-rule="evenodd" d="M6.65347 9.7125C4.27723 13.3464 1.26732 17.1125 0 18.5C1.26732 19.8875 4.27723 23.6536 6.65347 27.2875C9.9802 32.375 16.6337 37 23.7624 37H24.2376C31.3663 37 38.0198 32.375 41.3465 27.2875C43.7228 23.6536 46.7327 19.8875 48 18.5C46.7327 17.1125 43.7228 13.3464 41.3465 9.7125C38.0198 4.625 31.3663 0 24.2376 0H23.7624C16.6337 0 9.9802 4.625 6.65347 9.7125ZM24.2376 33.3C32.3743 33.3 38.9703 26.8809 38.9703 18.9625C38.9703 11.0441 32.3743 4.625 24.2376 4.625C16.101 4.625 9.50495 11.0441 9.50495 18.9625C9.50495 26.8809 16.101 33.3 24.2376 33.3Z" fill="white"/>
<path d="M31.3663 18.9625C31.3663 22.794 28.1747 25.9 24.2376 25.9C20.3005 25.9 17.1089 22.794 17.1089 18.9625C17.1089 15.131 20.3005 12.025 24.2376 12.025C28.1747 12.025 31.3663 15.131 31.3663 18.9625Z" fill="white"/>
</svg>
