<svg width="44" height="44" viewBox="0 0 44 44" fill="none" xmlns="http://www.w3.org/2000/svg">
<path d="M44 34.4836L34.5714 43.8883L3.40361e-06 9.40462L9.42857 6.7558e-07L44 34.4836Z" fill="white"/>
<path d="M36.5 0.888252C34.7438 0.888252 33.8947 1.20514 32.7799 2.38825L33.3634 1.80621L1.93487 33.155L3.2048 31.8883C2.13685 32.9858 1.88858 33.8347 1.88857 35.485C1.88857 38.8517 4.62475 41.5809 8 41.5809C9.75395 41.5809 10.8855 41.0687 12 39.8883L41 11.3883C42.1861 10.2763 42.6114 8.73589 42.6114 6.98415C42.6114 3.61748 39.8752 0.888252 36.5 0.888252Z" fill="white"/>
</svg>
