<svg width="46" height="42" viewBox="0 0 46 42" fill="none" xmlns="http://www.w3.org/2000/svg">
<path d="M22.2435 41.1247C22.6423 41.5862 23.3577 41.5862 23.7565 41.1247L44.2602 17.4039C44.8202 16.7561 44.36 15.75 43.5037 15.75H2.49631C1.64 15.75 1.17979 16.7561 1.73976 17.4039L22.2435 41.1247Z" fill="white"/>
<path d="M46 11.5C46 17.8513 40.6274 23 34 23C27.3726 23 22 17.8513 22 11.5C22 5.14873 27.3726 0 34 0C40.6274 0 46 5.14873 46 11.5Z" fill="white"/>
<path d="M24 11.5C24 17.8513 18.6274 23 12 23C5.37258 23 0 17.8513 0 11.5C0 5.14873 5.37258 0 12 0C18.6274 0 24 5.14873 24 11.5Z" fill="white"/>
</svg>
