<svg width="41" height="41" viewBox="0 0 41 41" fill="none" xmlns="http://www.w3.org/2000/svg">
<path fill-rule="evenodd" clip-rule="evenodd" d="M0 2.38419e-07H36.9386C39.086 2.38419e-07 40.8268 1.74084 40.8268 3.88827V36.9386C40.8268 39.086 39.086 40.8268 36.9386 40.8268L3.01076 40.7274C1.28595 40.3295 0 38.7842 0 36.9386V2.38419e-07ZM10.2067 17.4972C12.6226 17.4972 14.581 15.5388 14.581 13.1229C14.581 10.707 12.6226 8.74861 10.2067 8.74861C7.79085 8.74861 5.8324 10.707 5.8324 13.1229C5.8324 15.5388 7.79085 17.4972 10.2067 17.4972ZM29.6481 17.4972C32.0639 17.4972 34.0224 15.5388 34.0224 13.1229C34.0224 10.707 32.0639 8.74861 29.6481 8.74861C27.2322 8.74861 25.2738 10.707 25.2738 13.1229C25.2738 15.5388 27.2322 17.4972 29.6481 17.4972Z" fill="white"/>
</svg>
